<?xml version="1.0" encoding="utf-8"?>
<!-- Generator: Adobe Illustrator 18.1.1, SVG Export Plug-In . SVG Version: 6.00 Build 0)  -->
<svg version="1.1" id="Layer_1" xmlns="http://www.w3.org/2000/svg" xmlns:xlink="http://www.w3.org/1999/xlink" x="0px" y="0px"
	 viewBox="100 0 1000 1000" enable-background="new 100 0 1000 1000" xml:space="preserve">
<g>
	<path fill="#FFFFFF" d="M461.8,210l-85.5,147.3c-18.2,30.9-18.2,69.1,0,100l26.4,45.5c0-0.9,0-1.8,0-3.6c0-35.5,10-69.1,26.4-98.2
		c0,0,0,0,0-0.9l74.5-128.2c22.7-38.2,63.6-62.7,108.2-62.7h140.9l0,0c-28.2-49.1-80.9-80-138.2-80H600
		C542.7,130,490,160.9,461.8,210z"/>
	<path fill="#FFFFFF" d="M280,474.5l84.5,148.2c18.2,30.9,50.9,50,86.4,50l0,0h52.7c-30.9-17.3-56.4-42.7-74.5-72.7l-0.9-0.9
		l-74.5-128.2c-22.7-38.2-22.7-86.4,0-125.5l71.8-122.7l0,0c-57.3,0-110,30-138.2,80l-7.3,12.7C251.8,364.5,251.8,425.5,280,474.5z"
		/>
	<path fill="#FFFFFF" d="M600,327.3c-94.5,0-171.8,77.3-171.8,171.8c0,95.5,77.3,172.7,172.7,172.7s172.7-77.3,172.7-172.7
		C772.7,405.5,695.5,328.2,600,327.3L600,327.3L600,327.3z M586.4,597.3c-0.9-0.9-1.8-0.9-3.6-1.8l-57.3-32.7
		c-10.9-6.4-17.3-17.3-17.3-29.1v-66.4c0-0.9,0-2.7,0-3.6l77.3,44.5L586.4,597.3z M690.9,467.3v66.4c0,11.8-6.4,23.6-17.3,29.1
		l-56.4,32.7c-0.9,0.9-1.8,0.9-3.6,1.8v-89.1l77.3-44.5C690.9,464.5,690.9,465.5,690.9,467.3z M617.3,404.5l57.3,32.7
		c0.9,0.9,1.8,0.9,2.7,1.8L600,483.6L522.7,440c0.9-0.9,1.8-1.8,2.7-1.8l57.3-32.7C593.6,398.2,606.4,398.2,617.3,404.5z"/>
	<path fill="#FFFFFF" d="M856.4,365.5l70.9,121.8l0,0c28.2-49.1,28.2-110,0-160l-7.3-12.7c-28.2-49.1-80.9-80-138.2-80h-170
		c-35.5,0-69.1,19.1-86.4,50L499.1,330c30-18.2,64.5-28.2,100.9-28.2l0,0h148.2C792.7,302.7,834.5,326.4,856.4,365.5z"/>
	<path fill="#FFFFFF" d="M920,525.5l-84.5-147.3c-18.2-30.9-50.9-50-86.4-50h-52.7c30.9,17.3,56.4,42.7,74.5,73.6l0,0L845.5,530
		c22.7,38.2,22.7,86.4,0,125.5l-70.9,121.8l0,0c57.3,0,110-30,138.2-80l7.3-12.7C948.2,635.5,948.2,574.5,920,525.5z"/>
	<path fill="#FFFFFF" d="M738.2,790l85.5-147.3c18.2-30.9,18.2-69.1,0-100l-26.4-45.5c0,0.9,0,1.8,0,2.7c0,35.5-10,69.1-26.4,98.2
		c0,0,0,0,0,0.9l-74.5,128.2c-22.7,38.2-63.6,62.7-108.2,62.7H447.3l0,0c28.2,49.1,80.9,80,138.2,80H600
		C657.3,870,710,839.1,738.2,790z"/>
	<path fill="#FFFFFF" d="M280,684.5c28.2,49.1,80.9,80,138.2,80h170c35.5,0,69.1-19.1,86.4-50l26.4-45.5
		c-30,18.2-64.5,28.2-100.9,28.2l0,0H451.8l0,0c-44.5,0-86.4-23.6-108.2-62.7l-70.9-122.7c-28.2,49.1-28.2,110,0,160L280,684.5z"/>
	<path fill="#4178BE" d="M582.7,404.5l-57.3,32.7c-0.9,0.9-1.8,0.9-2.7,1.8l77.3,44.5l77.3-44.5c-0.9-0.9-1.8-1.8-2.7-1.8
		l-57.3-32.7C606.4,398.2,593.6,398.2,582.7,404.5z"/>
	<path fill="#4178BE" d="M613.6,597.3c0.9-0.9,1.8-0.9,3.6-1.8l57.3-32.7c10.9-6.4,17.3-17.3,17.3-29.1v-66.4c0-0.9,0-2.7,0-3.6
		l-78.2,44.5V597.3z"/>
	<path fill="#4178BE" d="M600,0C323.6,0,100,223.6,100,500s223.6,500,500,500s500-223.6,500-500S876.4,0,600,0z M600,302.7
		c-37.3,0-71.8,10-100.9,28.2l26.4-45.5c18.2-30.9,50.9-50,86.4-50h170c57.3,0,110,30,138.2,80l7.3,12.7c28.2,49.1,28.2,110,0,160
		l0,0l-70.9-121.8c-21.8-38.2-63.6-62.7-108.2-62.7L600,302.7L600,302.7z M772.7,500c0,95.5-77.3,172.7-172.7,172.7
		c-94.5,0-172.7-77.3-172.7-172.7c0-94.5,77.3-171.8,171.8-171.8l0,0l0,0C695.5,328.2,772.7,405.5,772.7,500z M752.7,210L752.7,210
		H611.8c-44.5,0-86.4,23.6-108.2,62.7l-74.5,128.2c0,0,0,0,0,0.9c-16.4,29.1-26.4,62.7-26.4,98.2c0,0.9,0,1.8,0,3.6l-26.4-45.5
		c-18.2-30.9-18.2-69.1,0-100l85.5-147.3c28.2-49.1,80.9-80,138.2-80h14.5C671.8,130,724.5,160.9,752.7,210z M287.3,302.7
		c28.2-49.1,80.9-80,138.2-80l0,0l-70.9,122.7c-22.7,39.1-22.7,86.4,0,125.5l74.5,128.2l0.9,0.9c18.2,30,43.6,55.5,74.5,72.7h-52.7
		l0,0c-35.5,0-69.1-19.1-86.4-50L280,475.5c-28.2-49.1-28.2-110,0-160L287.3,302.7z M272.7,512.7l70.9,122.7
		c22.7,39.1,63.6,62.7,108.2,62.7l0,0H600l0,0c37.3,0,71.8-10,100.9-28.2l-26.4,45.5c-18.2,30.9-50.9,50-86.4,50h-170
		c-57.3,0-110-30-138.2-80l-7.3-12.7C244.5,622.7,244.5,561.8,272.7,512.7z M447.3,790L447.3,790h140.9c44.5,0,86.4-23.6,108.2-62.7
		l74.5-128.2c0,0,0,0,0-0.9c16.4-29.1,26.4-62.7,26.4-98.2c0-0.9,0-1.8,0-2.7l26.4,45.5c18.2,30.9,18.2,69.1,0,100L738.2,790
		c-28.2,49.1-80.9,80-138.2,80h-14.5C528.2,870,475.5,839.1,447.3,790z M912.7,697.3c-28.2,49.1-80.9,80-138.2,80l0,0l70.9-122.7
		c22.7-39.1,22.7-86.4,0-125.5l-74.5-128.2l0,0c-18.2-30.9-43.6-56.4-74.5-73.6h52.7c35.5,0,69.1,19.1,86.4,50L920,524.5
		c28.2,49.1,28.2,110,0,160L912.7,697.3z"/>
	<path fill="#4178BE" d="M509.1,467.3v66.4c0,11.8,6.4,23.6,17.3,29.1l57.3,32.7c0.9,0.9,1.8,0.9,3.6,1.8v-89.1L510,463.6
		C509.1,464.5,509.1,465.5,509.1,467.3z"/>
</g>
</svg>
